<svg version="1.1" id="Layer_1" xmlns="http://www.w3.org/2000/svg" xmlns:xlink="http://www.w3.org/1999/xlink" x="0px" y="0px"
	 width="100%" viewBox="0 0 3264 2176" enable-background="none" xml:space="preserve">
<path fill="none" opacity="1" stroke="none" 
	d="
M2344.000000,2178.000000 
	C1562.666626,2178.000000 782.333313,2178.000000 2.000000,2178.000000 
	C2.000000,1452.666626 2.000000,727.333313 2.000000,2.000000 
	C1090.000000,2.000000 2178.000000,2.000000 3266.000000,2.000000 
	C3266.000000,727.333313 3266.000000,1452.666626 3266.000000,2178.000000 
	C2959.000000,2178.000000 2652.000000,2178.000000 2344.000000,2178.000000 
M1796.279053,1344.707764 
	C1794.856079,1342.459717 1793.573730,1340.106934 1791.988647,1337.979736 
	C1774.493164,1314.502441 1756.871460,1291.118652 1739.443848,1267.591187 
	C1723.441162,1245.987427 1707.629272,1224.242310 1691.741333,1202.553467 
	C1677.761597,1183.469482 1663.844360,1164.339355 1649.797363,1145.304932 
	C1642.760132,1135.769165 1635.743896,1126.198364 1628.251709,1117.024414 
	C1622.776001,1110.319458 1619.690308,1110.576782 1614.380371,1117.622192 
	C1605.663452,1129.187988 1597.169922,1140.923096 1588.650024,1152.635986 
	C1573.929321,1172.873901 1559.408813,1193.259277 1544.531494,1213.380737 
	C1527.099731,1236.957153 1509.258789,1260.230957 1491.812134,1283.796387 
	C1473.818481,1308.100342 1456.098022,1332.606445 1438.234009,1357.006470 
	C1425.993042,1373.726074 1413.727661,1390.428101 1401.441528,1407.114624 
	C1389.930054,1422.748779 1378.403931,1438.372437 1366.834961,1453.964233 
	C1351.925537,1474.057861 1336.936646,1494.092651 1322.040405,1514.196289 
	C1312.253540,1527.404175 1302.608521,1540.717163 1292.829468,1553.930908 
	C1281.863770,1568.748047 1270.738647,1583.447632 1259.850342,1598.321045 
	C1255.905640,1603.709351 1258.331665,1608.881470 1264.884644,1609.621948 
	C1266.859741,1609.845093 1268.880371,1609.668457 1270.880127,1609.668457 
	C1505.187500,1609.668945 1739.494995,1609.669067 1973.802368,1609.669067 
	C1977.045166,1609.669067 1980.287964,1609.668945 1983.164795,1609.668945 
	C1985.725220,1602.569336 1983.462158,1597.824219 1979.911133,1593.029053 
	C1963.024536,1570.225952 1946.369385,1547.251831 1929.556030,1524.394287 
	C1915.093628,1504.732910 1900.489136,1485.176147 1886.019409,1465.520142 
	C1869.033325,1442.445923 1852.218506,1419.245117 1835.151489,1396.231201 
	C1822.624878,1379.340210 1809.811523,1362.661743 1796.279053,1344.707764 
M2230.015625,1355.100586 
	C2223.183838,1364.294678 2216.324219,1373.468140 2209.526367,1382.687256 
	C2194.452393,1403.130249 2179.420410,1423.603882 2164.351074,1444.050293 
	C2152.427246,1460.228516 2140.437500,1476.358032 2128.541504,1492.556641 
	C2109.044189,1519.105835 2089.773926,1545.825073 2069.969238,1572.142456 
	C2066.440674,1576.831421 2064.554688,1580.826660 2066.985840,1587.668945 
	C2070.973633,1587.668945 2075.203857,1587.669067 2079.434082,1587.669067 
	C2311.406494,1587.669067 2543.379150,1587.669067 2775.351562,1587.668945 
	C2777.684570,1587.668945 2780.029541,1587.517700 2782.348389,1587.698730 
	C2786.947021,1588.057861 2789.992920,1586.197998 2791.694092,1581.360596 
	C2790.760742,1579.623535 2789.896973,1577.461548 2788.568115,1575.638794 
	C2783.118408,1568.163818 2777.479492,1560.826904 2771.995850,1553.376343 
	C2749.221191,1522.431885 2726.520020,1491.433472 2703.711182,1460.514526 
	C2680.472168,1429.012085 2657.045898,1397.647461 2633.866699,1366.101196 
	C2598.183838,1317.537231 2562.699463,1268.827148 2527.021484,1220.259644 
	C2497.480957,1180.047119 2467.835449,1139.911255 2438.072021,1099.863892 
	C2435.088135,1095.848999 2430.963135,1092.682129 2426.914551,1088.672852 
	C2416.032715,1103.035400 2405.967773,1116.075317 2396.167480,1129.311157 
	C2381.325928,1149.355469 2366.664551,1169.533813 2351.932861,1189.659668 
	C2336.702148,1210.466919 2321.501465,1231.296021 2306.245117,1252.084351 
	C2295.336426,1266.948730 2284.364258,1281.766602 2273.408447,1296.596191 
	C2259.265381,1315.739014 2245.110107,1334.872803 2230.015625,1355.100586 
M1203.804810,1591.267944 
	C1199.155273,1584.937988 1194.558716,1578.568359 1189.845825,1572.286011 
	C1177.428833,1555.734497 1164.821045,1539.324463 1152.546753,1522.668213 
	C1134.046753,1497.563721 1115.799683,1472.272949 1097.376831,1447.111328 
	C1088.620117,1435.151611 1079.685181,1423.322632 1070.868164,1411.406860 
	C1058.742065,1395.018799 1046.682617,1378.581177 1034.534546,1362.209351 
	C1025.598511,1350.166260 1016.482544,1338.256104 1007.598633,1326.175171 
	C997.528931,1312.481934 987.795471,1298.539307 977.610840,1284.933472 
	C965.978149,1269.393311 953.733154,1254.306885 942.263428,1238.650269 
	C930.428833,1222.495483 919.405212,1205.748413 907.663208,1189.523560 
	C894.556763,1171.413452 881.060303,1153.585449 867.692444,1135.665161 
	C863.541626,1130.100708 859.579590,1124.345215 854.944641,1119.205933 
	C850.053101,1113.781982 846.619995,1114.105591 841.994995,1120.070557 
	C835.122070,1128.934326 828.506958,1138.000488 821.887939,1147.057983 
	C810.455322,1162.702515 799.177979,1178.460693 787.698853,1194.070679 
	C775.272522,1210.968628 762.614990,1227.696533 750.197327,1244.600830 
	C738.644592,1260.327515 727.419250,1276.295898 715.785034,1291.961182 
	C703.434753,1308.590942 690.585632,1324.851318 678.300049,1341.527710 
	C666.196899,1357.956299 654.742615,1374.863403 642.620361,1391.277466 
	C619.857422,1422.099731 596.717468,1452.643311 573.923218,1483.442627 
	C552.696350,1512.124268 531.719971,1540.991333 510.623322,1569.769409 
	C503.213074,1579.877808 495.851318,1590.023560 488.296448,1600.023071 
	C486.153778,1602.859009 484.229919,1606.114502 486.366486,1608.925659 
	C487.866669,1610.899658 491.427277,1611.629639 494.214600,1612.209351 
	C496.770477,1612.740845 499.523071,1612.328857 502.188995,1612.328857 
	C710.798157,1612.329224 919.407349,1612.329102 1128.016479,1612.329102 
	C1152.343140,1612.329102 1176.669800,1612.367676 1200.996216,1612.285889 
	C1204.460083,1612.274292 1207.922119,1611.679565 1210.800537,1611.409668 
	C1213.618042,1602.567383 1208.658936,1597.671509 1203.804810,1591.267944 
M1569.291626,446.275452 
	C1567.466187,454.583221 1565.535278,462.869598 1563.843872,471.204559 
	C1562.021851,480.182312 1561.206055,489.443237 1558.557373,498.156952 
	C1553.814819,513.760132 1553.299683,530.134216 1548.606201,545.782959 
	C1545.191772,557.167969 1544.521484,569.349365 1542.130249,581.074280 
	C1538.728149,597.756836 1534.814087,614.334412 1531.260132,630.987122 
	C1530.647339,633.858643 1529.970093,637.109192 1530.760864,639.754761 
	C1531.325562,641.644226 1534.132324,643.639099 1536.243164,644.060242 
	C1538.137207,644.438110 1540.512207,642.873474 1542.563354,641.924622 
	C1569.133057,629.633362 1595.727905,617.394836 1622.223877,604.946228 
	C1644.718262,594.377808 1667.025513,583.411011 1689.540771,572.888123 
	C1708.171265,564.180725 1727.067627,556.042175 1745.695435,547.329102 
	C1768.702271,536.567688 1791.463623,525.280396 1814.496094,514.575073 
	C1837.913452,503.690948 1861.603516,493.393982 1885.040283,482.550415 
	C1906.044678,472.832306 1926.802124,462.581421 1947.784790,452.815308 
	C1978.552856,438.494781 2009.471680,424.497742 2040.238037,410.173706 
	C2066.880127,397.769867 2093.381104,385.063019 2119.979492,372.564728 
	C2140.956299,362.707916 2161.951660,352.888153 2183.028320,343.248291 
	C2186.406250,341.703400 2190.836670,340.655182 2189.907715,336.391022 
	C2189.251709,333.378693 2186.243652,330.123505 2183.413330,328.467712 
	C2169.599854,320.386505 2155.525391,312.747864 2141.482178,305.064056 
	C2123.793945,295.385925 2106.067139,285.776855 2088.318848,276.209045 
	C2066.938721,264.683350 2045.501587,253.263245 2024.119507,241.740784 
	C2000.231445,228.867767 1976.358276,215.966721 1952.514648,203.011505 
	C1932.013672,191.872330 1911.615967,180.542053 1891.067505,169.491699 
	C1881.553589,164.375320 1870.836304,160.973099 1862.392212,154.529724 
	C1852.912720,147.296341 1842.118408,142.754013 1832.158203,136.644913 
	C1815.110229,126.188454 1796.945190,117.562317 1779.324707,108.028000 
	C1760.848389,98.030579 1742.469482,87.853012 1724.031738,77.784081 
	C1707.430298,68.717987 1690.852051,59.607712 1674.170654,50.690788 
	C1667.570312,47.162598 1660.718872,44.104156 1654.518555,41.092602 
	C1646.426025,48.304581 1647.853027,57.336548 1646.093750,65.079994 
	C1641.509399,85.256660 1638.021973,105.682159 1634.069336,126.003014 
	C1633.083740,131.070114 1632.080566,136.136780 1630.931030,141.168289 
	C1629.267822,148.446823 1627.149048,155.634872 1625.792236,162.966568 
	C1623.645142,174.570236 1622.745483,186.453522 1619.915771,197.870987 
	C1615.325439,216.392273 1611.973389,235.131744 1608.083984,253.779175 
	C1605.021729,268.460449 1600.922607,282.908295 1599.558838,297.924683 
	C1599.115845,302.802765 1599.348755,308.244171 1597.219849,312.368256 
	C1591.914917,322.644775 1592.661133,334.211426 1588.886841,344.903168 
	C1584.826050,356.405884 1584.428101,369.177917 1582.180420,381.349640 
	C1578.274170,402.502838 1574.174561,423.620300 1569.291626,446.275452 
M2743.000000,2127.669189 
	C2883.895508,2127.669189 3024.791016,2127.669189 3165.176270,2127.669189 
	C3169.987061,2121.796387 3166.772705,2117.583740 3163.828857,2113.567139 
	C3151.700195,2097.016602 3139.457031,2080.550293 3127.250000,2064.057617 
	C3099.094971,2026.017822 3070.878906,1988.023193 3042.798096,1949.928711 
	C3020.364502,1919.494873 2998.121582,1888.920410 2975.744629,1858.444702 
	C2949.060303,1822.103271 2922.384033,1785.755615 2895.591064,1749.494141 
	C2871.567139,1716.980103 2847.414062,1684.561157 2823.257080,1652.145508 
	C2818.909180,1646.310669 2814.576416,1640.410400 2809.662354,1635.068604 
	C2805.816406,1630.888184 2803.769531,1631.226440 2799.806396,1635.226440 
	C2798.197021,1636.850830 2796.859375,1638.759033 2795.494629,1640.609253 
	C2786.133545,1653.301147 2776.854004,1666.053467 2767.441162,1678.706787 
	C2755.126465,1695.260864 2742.559570,1711.629150 2730.386230,1728.286011 
	C2718.822754,1744.109009 2707.832764,1760.352295 2696.218506,1776.136841 
	C2680.507812,1797.488037 2664.355225,1818.513550 2648.554199,1839.799072 
	C2634.260010,1859.055054 2620.238525,1878.513306 2605.996094,1897.808105 
	C2590.832764,1918.350586 2575.510254,1938.775635 2560.341553,1959.314087 
	C2554.051514,1967.830566 2548.104248,1976.600830 2541.781006,1985.091797 
	C2531.842041,1998.437866 2521.602295,2011.560303 2511.700439,2024.932983 
	C2499.184814,2041.835815 2486.899170,2058.908447 2474.478271,2075.881836 
	C2464.402588,2089.650146 2454.174805,2103.308838 2444.265381,2117.195312 
	C2442.601074,2119.527832 2442.213623,2122.771973 2441.260986,2125.522949 
	C2443.348145,2126.579346 2444.215576,2127.402588 2445.083740,2127.403564 
	C2543.722412,2127.531738 2642.361328,2127.598877 2743.000000,2127.669189 
M2384.236328,1028.036743 
	C2383.046387,1025.720459 2382.154541,1023.180969 2380.616455,1021.125183 
	C2372.509033,1010.287903 2364.063477,999.700989 2356.065186,988.785522 
	C2343.564697,971.725891 2331.493896,954.350342 2318.941895,937.329407 
	C2299.486816,910.948120 2279.677490,884.828186 2260.211914,858.454407 
	C2244.580322,837.275330 2229.350098,815.800171 2213.733887,794.609619 
	C2196.736572,771.545044 2179.440430,748.700867 2162.385986,725.678284 
	C2149.460693,708.230286 2136.754883,690.620422 2123.870850,673.141907 
	C2106.618896,649.737488 2089.226074,626.437012 2072.013184,603.004150 
	C2057.916016,583.812744 2044.095947,564.417114 2029.948853,545.262817 
	C2022.990479,535.841309 2018.617554,536.062317 2011.686157,545.533936 
	C2011.294189,546.069519 2011.015015,546.686829 2010.630493,547.228699 
	C2002.213013,559.091370 1993.955078,571.071899 1985.324707,582.777954 
	C1972.871948,599.668335 1960.006104,616.254578 1947.571655,633.158203 
	C1927.826416,660.000244 1908.381958,687.063416 1888.641113,713.908691 
	C1871.090576,737.775330 1853.198730,761.391052 1835.660034,785.266235 
	C1813.170166,815.881409 1790.996948,846.729492 1768.463867,877.312744 
	C1755.952759,894.293762 1742.814209,910.812012 1730.263794,927.764832 
	C1707.043701,959.130127 1684.117554,990.713013 1660.868530,1022.056641 
	C1658.039551,1025.870728 1656.648804,1029.265015 1658.865845,1034.328979 
	C1662.439697,1034.328979 1666.061035,1034.328979 1669.682373,1034.328979 
	C1903.915527,1034.328979 2138.148682,1034.329468 2372.381836,1034.322266 
	C2375.377686,1034.322266 2378.476807,1034.654297 2381.321777,1033.972290 
	C2382.583252,1033.669922 2383.331055,1031.223877 2384.236328,1028.036743 
M1241.887085,570.892700 
	C1226.986084,590.938904 1212.052368,610.960938 1197.192383,631.037476 
	C1178.710083,656.007690 1160.277954,681.015198 1141.843750,706.020996 
	C1125.123779,728.701233 1108.351562,751.343567 1091.748901,774.109375 
	C1077.960327,793.016235 1064.595337,812.234375 1050.658936,831.030151 
	C1035.367310,851.653748 1019.456055,871.817505 1004.138794,892.422424 
	C980.915894,923.662109 957.975220,955.111572 934.910034,986.468506 
	C923.779724,1001.600098 912.655701,1016.736328 901.490112,1031.841797 
	C899.048828,1035.144531 896.900146,1038.405518 899.769897,1043.117432 
	C1140.325439,1043.117432 1381.034302,1043.117432 1621.593628,1043.117432 
	C1623.536987,1037.447144 1621.770020,1033.162598 1618.601440,1028.945190 
	C1608.908081,1016.043152 1599.419556,1002.987427 1589.827026,990.009216 
	C1569.996216,963.178711 1550.131714,936.372986 1530.316772,909.530823 
	C1519.203491,894.476318 1508.144409,879.381714 1497.091675,864.282654 
	C1486.061890,849.215271 1475.109009,834.091553 1464.052002,819.044250 
	C1452.129272,802.818604 1440.148926,786.635132 1428.150391,770.465210 
	C1410.672607,746.910828 1393.097656,723.428284 1375.673706,699.834045 
	C1360.408569,679.162720 1345.319214,658.361572 1330.107910,637.650391 
	C1309.936890,610.186157 1289.762939,582.723816 1269.474365,555.346497 
	C1267.042969,552.065735 1263.887817,549.321411 1260.372070,545.589539 
	C1253.957153,554.351746 1248.337769,562.027405 1241.887085,570.892700 
M2256.681641,1960.300537 
	C2231.008545,1925.448730 2205.367188,1890.573608 2179.654297,1855.750854 
	C2148.797363,1813.962158 2117.856201,1772.235474 2086.999756,1730.446289 
	C2075.056152,1714.270874 2063.315674,1697.945068 2051.349609,1681.786377 
	C2042.695801,1670.100342 2034.005493,1658.432251 2024.983643,1647.031494 
	C2018.843628,1639.272461 2014.885620,1639.695801 2009.122070,1647.933838 
	C2005.214722,1653.518799 2001.467163,1659.219482 1997.441406,1664.716919 
	C1981.766479,1686.122314 1966.027222,1707.480713 1950.273071,1728.828003 
	C1944.070190,1737.233398 1937.770630,1745.567505 1931.505127,1753.926758 
	C1918.935303,1770.696899 1906.274902,1787.400146 1893.808350,1804.246948 
	C1882.294800,1819.806030 1871.064941,1835.575073 1859.567993,1851.146729 
	C1844.043335,1872.173950 1828.335571,1893.065918 1812.794800,1914.081177 
	C1799.951782,1931.448975 1787.243286,1948.916016 1774.463013,1966.330200 
	C1768.253174,1974.791504 1761.974487,1983.202393 1755.801147,1991.690430 
	C1747.146484,2003.590088 1738.699341,2015.642944 1729.912354,2027.443481 
	C1718.028320,2043.403809 1705.850952,2059.145508 1693.902466,2075.058105 
	C1682.891846,2089.720947 1671.577393,2104.190674 1661.361328,2119.393311 
	C1658.431396,2123.753418 1651.556763,2127.557617 1655.462036,2135.712402 
	C1659.616699,2135.903809 1664.226929,2136.301514 1668.837158,2136.302246 
	C1901.456665,2136.332275 2134.076172,2136.329102 2366.695801,2136.325195 
	C2369.360596,2136.324951 2372.025879,2136.292480 2374.689941,2136.231934 
	C2378.521729,2136.144775 2380.878906,2134.306396 2381.613525,2129.701904 
	C2340.461914,2073.872559 2299.023926,2017.655029 2256.681641,1960.300537 
M683.297180,1933.693481 
	C670.379395,1916.184448 657.524780,1898.628418 644.529419,1881.177246 
	C623.947327,1853.538330 603.124817,1826.077271 582.678589,1798.338745 
	C564.627319,1773.849365 547.038818,1749.019653 529.083435,1724.458862 
	C512.497192,1701.770996 495.761292,1679.191406 478.919434,1656.692749 
	C476.259216,1653.139038 472.690430,1650.265259 468.874603,1646.401611 
	C465.823425,1649.933350 463.542053,1652.267944 461.613037,1654.864380 
	C455.896393,1662.559326 450.397919,1670.416382 444.673370,1678.105347 
	C416.564301,1715.860229 388.311646,1753.508423 360.298859,1791.334351 
	C332.620667,1828.708252 305.186188,1866.262451 277.612885,1903.713989 
	C241.986343,1952.103882 206.334839,2000.475464 170.680847,2048.844971 
	C150.584137,2076.109131 130.416763,2103.321289 110.413216,2130.653320 
	C108.235718,2133.628662 106.934837,2137.245361 104.606407,2141.771973 
	C348.304138,2141.771973 590.088440,2141.771973 831.732117,2141.771973 
	C833.431458,2136.510010 830.537842,2133.292969 827.940308,2129.795898 
	C812.174316,2108.572021 796.478333,2087.296387 780.820312,2065.992920 
	C761.419189,2039.596558 742.107666,2013.134399 722.699646,1986.743286 
	C709.932495,1969.382446 697.063293,1952.096680 683.297180,1933.693481 
M989.428467,1980.380493 
	C970.902649,2005.280640 952.381836,2030.184570 933.848999,2055.079590 
	C924.205872,2068.033203 914.458313,2080.910400 904.910339,2093.933838 
	C895.342163,2106.984375 885.959595,2120.170898 876.505798,2133.305420 
	C874.632690,2135.907959 872.029114,2138.402344 874.603394,2141.647949 
	C1116.411133,2141.647949 1357.871338,2141.647949 1601.165527,2141.647949 
	C1598.055420,2136.308105 1596.024170,2132.013672 1593.278076,2128.239502 
	C1577.460815,2106.500000 1561.456787,2084.896484 1545.549072,2063.222656 
	C1523.931763,2033.769409 1502.408081,2004.246948 1480.725952,1974.841675 
	C1459.153442,1945.585205 1437.397949,1916.463745 1415.789429,1887.233887 
	C1390.974243,1853.666016 1366.229248,1820.046265 1341.460205,1786.444336 
	C1326.250000,1765.809937 1311.053589,1745.165405 1295.848267,1724.527344 
	C1279.420288,1702.230469 1263.013306,1679.917969 1246.519531,1657.670044 
	C1244.953247,1655.557373 1242.831665,1653.856934 1240.971924,1651.961060 
	C1237.668701,1648.593750 1234.328979,1649.080078 1231.521484,1652.370972 
	C1228.969727,1655.362183 1226.966431,1658.813965 1224.603882,1661.975098 
	C1203.358032,1690.401489 1181.945801,1718.704590 1160.863892,1747.251831 
	C1141.538330,1773.421021 1122.633057,1799.899902 1103.405273,1826.141724 
	C1090.604614,1843.612305 1077.525513,1860.878662 1064.641479,1878.288574 
	C1055.634277,1890.460083 1046.787231,1902.749878 1037.795898,1914.933105 
	C1021.971741,1936.375122 1006.092102,1957.776123 989.428467,1980.380493 
z"/>
<path fill="#FEFEFE" opacity="1.000000" stroke="none" 
	d="
M1796.702393,1345.298218 
	C1809.811523,1362.661743 1822.624878,1379.340210 1835.151489,1396.231201 
	C1852.218506,1419.245117 1869.033325,1442.445923 1886.019409,1465.520142 
	C1900.489136,1485.176147 1915.093628,1504.732910 1929.556030,1524.394287 
	C1946.369385,1547.251831 1963.024536,1570.225952 1979.911133,1593.029053 
	C1983.462158,1597.824219 1985.725220,1602.569336 1983.164795,1609.668945 
	C1980.287964,1609.668945 1977.045166,1609.669067 1973.802368,1609.669067 
	C1739.494995,1609.669067 1505.187500,1609.668945 1270.880127,1609.668457 
	C1268.880371,1609.668457 1266.859741,1609.845093 1264.884644,1609.621948 
	C1258.331665,1608.881470 1255.905640,1603.709351 1259.850342,1598.321045 
	C1270.738647,1583.447632 1281.863770,1568.748047 1292.829468,1553.930908 
	C1302.608521,1540.717163 1312.253540,1527.404175 1322.040405,1514.196289 
	C1336.936646,1494.092651 1351.925537,1474.057861 1366.834961,1453.964233 
	C1378.403931,1438.372437 1389.930054,1422.748779 1401.441528,1407.114624 
	C1413.727661,1390.428101 1425.993042,1373.726074 1438.234009,1357.006470 
	C1456.098022,1332.606445 1473.818481,1308.100342 1491.812134,1283.796387 
	C1509.258789,1260.230957 1527.099731,1236.957153 1544.531494,1213.380737 
	C1559.408813,1193.259277 1573.929321,1172.873901 1588.650024,1152.635986 
	C1597.169922,1140.923096 1605.663452,1129.187988 1614.380371,1117.622192 
	C1619.690308,1110.576782 1622.776001,1110.319458 1628.251709,1117.024414 
	C1635.743896,1126.198364 1642.760132,1135.769165 1649.797363,1145.304932 
	C1663.844360,1164.339355 1677.761597,1183.469482 1691.741333,1202.553467 
	C1707.629272,1224.242310 1723.441162,1245.987427 1739.443848,1267.591187 
	C1756.871460,1291.118652 1774.493164,1314.502441 1791.988647,1337.979736 
	C1793.573730,1340.106934 1794.856079,1342.459717 1796.702393,1345.298218 
z"/>
<path fill="#FEFEFE" opacity="1.000000" stroke="none" 
	d="
M2230.487793,1354.555420 
	C2245.110107,1334.872803 2259.265381,1315.739014 2273.408447,1296.596191 
	C2284.364258,1281.766602 2295.336426,1266.948730 2306.245117,1252.084351 
	C2321.501465,1231.296021 2336.702148,1210.466919 2351.932861,1189.659668 
	C2366.664551,1169.533813 2381.325928,1149.355469 2396.167480,1129.311157 
	C2405.967773,1116.075317 2416.032715,1103.035400 2426.914551,1088.672852 
	C2430.963135,1092.682129 2435.088135,1095.848999 2438.072021,1099.863892 
	C2467.835449,1139.911255 2497.480957,1180.047119 2527.021484,1220.259644 
	C2562.699463,1268.827148 2598.183838,1317.537231 2633.866699,1366.101196 
	C2657.045898,1397.647461 2680.472168,1429.012085 2703.711182,1460.514526 
	C2726.520020,1491.433472 2749.221191,1522.431885 2771.995850,1553.376343 
	C2777.479492,1560.826904 2783.118408,1568.163818 2788.568115,1575.638794 
	C2789.896973,1577.461548 2790.760742,1579.623535 2791.694092,1581.360596 
	C2789.992920,1586.197998 2786.947021,1588.057861 2782.348389,1587.698730 
	C2780.029541,1587.517700 2777.684570,1587.668945 2775.351562,1587.668945 
	C2543.379150,1587.669067 2311.406494,1587.669067 2079.434082,1587.669067 
	C2075.203857,1587.669067 2070.973633,1587.668945 2066.985840,1587.668945 
	C2064.554688,1580.826660 2066.440674,1576.831421 2069.969238,1572.142456 
	C2089.773926,1545.825073 2109.044189,1519.105835 2128.541504,1492.556641 
	C2140.437500,1476.358032 2152.427246,1460.228516 2164.351074,1444.050293 
	C2179.420410,1423.603882 2194.452393,1403.130249 2209.526367,1382.687256 
	C2216.324219,1373.468140 2223.183838,1364.294678 2230.487793,1354.555420 
z"/>
<path fill="#FEFEFE" opacity="1.000000" stroke="none" 
	d="
M1204.265137,1591.833252 
	C1208.658936,1597.671509 1213.618042,1602.567383 1210.800537,1611.409668 
	C1207.922119,1611.679565 1204.460083,1612.274292 1200.996216,1612.285889 
	C1176.669800,1612.367676 1152.343140,1612.329102 1128.016479,1612.329102 
	C919.407349,1612.329102 710.798157,1612.329224 502.188995,1612.328857 
	C499.523071,1612.328857 496.770477,1612.740845 494.214600,1612.209351 
	C491.427277,1611.629639 487.866669,1610.899658 486.366486,1608.925659 
	C484.229919,1606.114502 486.153778,1602.859009 488.296448,1600.023071 
	C495.851318,1590.023560 503.213074,1579.877808 510.623322,1569.769409 
	C531.719971,1540.991333 552.696350,1512.124268 573.923218,1483.442627 
	C596.717468,1452.643311 619.857422,1422.099731 642.620361,1391.277466 
	C654.742615,1374.863403 666.196899,1357.956299 678.300049,1341.527710 
	C690.585632,1324.851318 703.434753,1308.590942 715.785034,1291.961182 
	C727.419250,1276.295898 738.644592,1260.327515 750.197327,1244.600830 
	C762.614990,1227.696533 775.272522,1210.968628 787.698853,1194.070679 
	C799.177979,1178.460693 810.455322,1162.702515 821.887939,1147.057983 
	C828.506958,1138.000488 835.122070,1128.934326 841.994995,1120.070557 
	C846.619995,1114.105591 850.053101,1113.781982 854.944641,1119.205933 
	C859.579590,1124.345215 863.541626,1130.100708 867.692444,1135.665161 
	C881.060303,1153.585449 894.556763,1171.413452 907.663208,1189.523560 
	C919.405212,1205.748413 930.428833,1222.495483 942.263428,1238.650269 
	C953.733154,1254.306885 965.978149,1269.393311 977.610840,1284.933472 
	C987.795471,1298.539307 997.528931,1312.481934 1007.598633,1326.175171 
	C1016.482544,1338.256104 1025.598511,1350.166260 1034.534546,1362.209351 
	C1046.682617,1378.581177 1058.742065,1395.018799 1070.868164,1411.406860 
	C1079.685181,1423.322632 1088.620117,1435.151611 1097.376831,1447.111328 
	C1115.799683,1472.272949 1134.046753,1497.563721 1152.546753,1522.668213 
	C1164.821045,1539.324463 1177.428833,1555.734497 1189.845825,1572.286011 
	C1194.558716,1578.568359 1199.155273,1584.937988 1204.265137,1591.833252 
z"/>
<path fill="#FEFEFE" opacity="1.000000" stroke="none" 
	d="
M1569.723877,445.514099 
	C1574.174561,423.620300 1578.274170,402.502838 1582.180420,381.349640 
	C1584.428101,369.177917 1584.826050,356.405884 1588.886841,344.903168 
	C1592.661133,334.211426 1591.914917,322.644775 1597.219849,312.368256 
	C1599.348755,308.244171 1599.115845,302.802765 1599.558838,297.924683 
	C1600.922607,282.908295 1605.021729,268.460449 1608.083984,253.779175 
	C1611.973389,235.131744 1615.325439,216.392273 1619.915771,197.870987 
	C1622.745483,186.453522 1623.645142,174.570236 1625.792236,162.966568 
	C1627.149048,155.634872 1629.267822,148.446823 1630.931030,141.168289 
	C1632.080566,136.136780 1633.083740,131.070114 1634.069336,126.003014 
	C1638.021973,105.682159 1641.509399,85.256660 1646.093750,65.079994 
	C1647.853027,57.336548 1646.426025,48.304581 1654.518555,41.092602 
	C1660.718872,44.104156 1667.570312,47.162598 1674.170654,50.690788 
	C1690.852051,59.607712 1707.430298,68.717987 1724.031738,77.784081 
	C1742.469482,87.853012 1760.848389,98.030579 1779.324707,108.028000 
	C1796.945190,117.562317 1815.110229,126.188454 1832.158203,136.644913 
	C1842.118408,142.754013 1852.912720,147.296341 1862.392212,154.529724 
	C1870.836304,160.973099 1881.553589,164.375320 1891.067505,169.491699 
	C1911.615967,180.542053 1932.013672,191.872330 1952.514648,203.011505 
	C1976.358276,215.966721 2000.231445,228.867767 2024.119507,241.740784 
	C2045.501587,253.263245 2066.938721,264.683350 2088.318848,276.209045 
	C2106.067139,285.776855 2123.793945,295.385925 2141.482178,305.064056 
	C2155.525391,312.747864 2169.599854,320.386505 2183.413330,328.467712 
	C2186.243652,330.123505 2189.251709,333.378693 2189.907715,336.391022 
	C2190.836670,340.655182 2186.406250,341.703400 2183.028320,343.248291 
	C2161.951660,352.888153 2140.956299,362.707916 2119.979492,372.564728 
	C2093.381104,385.063019 2066.880127,397.769867 2040.238037,410.173706 
	C2009.471680,424.497742 1978.552856,438.494781 1947.784790,452.815308 
	C1926.802124,462.581421 1906.044678,472.832306 1885.040283,482.550415 
	C1861.603516,493.393982 1837.913452,503.690948 1814.496094,514.575073 
	C1791.463623,525.280396 1768.702271,536.567688 1745.695435,547.329102 
	C1727.067627,556.042175 1708.171265,564.180725 1689.540771,572.888123 
	C1667.025513,583.411011 1644.718262,594.377808 1622.223877,604.946228 
	C1595.727905,617.394836 1569.133057,629.633362 1542.563354,641.924622 
	C1540.512207,642.873474 1538.137207,644.438110 1536.243164,644.060242 
	C1534.132324,643.639099 1531.325562,641.644226 1530.760864,639.754761 
	C1529.970093,637.109192 1530.647339,633.858643 1531.260132,630.987122 
	C1534.814087,614.334412 1538.728149,597.756836 1542.130249,581.074280 
	C1544.521484,569.349365 1545.191772,557.167969 1548.606201,545.782959 
	C1553.299683,530.134216 1553.814819,513.760132 1558.557373,498.156952 
	C1561.206055,489.443237 1562.021851,480.182312 1563.843872,471.204559 
	C1565.535278,462.869598 1567.466187,454.583221 1569.723877,445.514099 
z"/>
<path fill="#FEFEFE" opacity="1.000000" stroke="none" 
	d="
M2742.000000,2127.669189 
	C2642.361328,2127.598877 2543.722412,2127.531738 2445.083740,2127.403564 
	C2444.215576,2127.402588 2443.348145,2126.579346 2441.260986,2125.522949 
	C2442.213623,2122.771973 2442.601074,2119.527832 2444.265381,2117.195312 
	C2454.174805,2103.308838 2464.402588,2089.650146 2474.478271,2075.881836 
	C2486.899170,2058.908447 2499.184814,2041.835815 2511.700439,2024.932983 
	C2521.602295,2011.560303 2531.842041,1998.437866 2541.781006,1985.091797 
	C2548.104248,1976.600830 2554.051514,1967.830566 2560.341553,1959.314087 
	C2575.510254,1938.775635 2590.832764,1918.350586 2605.996094,1897.808105 
	C2620.238525,1878.513306 2634.260010,1859.055054 2648.554199,1839.799072 
	C2664.355225,1818.513550 2680.507812,1797.488037 2696.218506,1776.136841 
	C2707.832764,1760.352295 2718.822754,1744.109009 2730.386230,1728.286011 
	C2742.559570,1711.629150 2755.126465,1695.260864 2767.441162,1678.706787 
	C2776.854004,1666.053467 2786.133545,1653.301147 2795.494629,1640.609253 
	C2796.859375,1638.759033 2798.197021,1636.850830 2799.806396,1635.226440 
	C2803.769531,1631.226440 2805.816406,1630.888184 2809.662354,1635.068604 
	C2814.576416,1640.410400 2818.909180,1646.310669 2823.257080,1652.145508 
	C2847.414062,1684.561157 2871.567139,1716.980103 2895.591064,1749.494141 
	C2922.384033,1785.755615 2949.060303,1822.103271 2975.744629,1858.444702 
	C2998.121582,1888.920410 3020.364502,1919.494873 3042.798096,1949.928711 
	C3070.878906,1988.023193 3099.094971,2026.017822 3127.250000,2064.057617 
	C3139.457031,2080.550293 3151.700195,2097.016602 3163.828857,2113.567139 
	C3166.772705,2117.583740 3169.987061,2121.796387 3165.176270,2127.669189 
	C3024.791016,2127.669189 2883.895508,2127.669189 2742.000000,2127.669189 
z"/>
<path fill="#FFFFFF" opacity="1.000000" stroke="none" 
	d="
M2384.274170,1028.893799 
	C2383.331055,1031.223877 2382.583252,1033.669922 2381.321777,1033.972290 
	C2378.476807,1034.654297 2375.377686,1034.322266 2372.381836,1034.322266 
	C2138.148682,1034.329468 1903.915527,1034.328979 1669.682373,1034.328979 
	C1666.061035,1034.328979 1662.439697,1034.328979 1658.865845,1034.328979 
	C1656.648804,1029.265015 1658.039551,1025.870728 1660.868530,1022.056641 
	C1684.117554,990.713013 1707.043701,959.130127 1730.263794,927.764832 
	C1742.814209,910.812012 1755.952759,894.293762 1768.463867,877.312744 
	C1790.996948,846.729492 1813.170166,815.881409 1835.660034,785.266235 
	C1853.198730,761.391052 1871.090576,737.775330 1888.641113,713.908691 
	C1908.381958,687.063416 1927.826416,660.000244 1947.571655,633.158203 
	C1960.006104,616.254578 1972.871948,599.668335 1985.324707,582.777954 
	C1993.955078,571.071899 2002.213013,559.091370 2010.630493,547.228699 
	C2011.015015,546.686829 2011.294189,546.069519 2011.686157,545.533936 
	C2018.617554,536.062317 2022.990479,535.841309 2029.948853,545.262817 
	C2044.095947,564.417114 2057.916016,583.812744 2072.013184,603.004150 
	C2089.226074,626.437012 2106.618896,649.737488 2123.870850,673.141907 
	C2136.754883,690.620422 2149.460693,708.230286 2162.385986,725.678284 
	C2179.440430,748.700867 2196.736572,771.545044 2213.733887,794.609619 
	C2229.350098,815.800171 2244.580322,837.275330 2260.211914,858.454407 
	C2279.677490,884.828186 2299.486816,910.948120 2318.941895,937.329407 
	C2331.493896,954.350342 2343.564697,971.725891 2356.065186,988.785522 
	C2364.063477,999.700989 2372.509033,1010.287903 2380.616455,1021.125183 
	C2382.154541,1023.180969 2383.046387,1025.720459 2384.274170,1028.893799 
z"/>
<path fill="#FEFEFE" opacity="1.000000" stroke="none" 
	d="
M1242.302734,570.297852 
	C1248.337769,562.027405 1253.957153,554.351746 1260.372070,545.589539 
	C1263.887817,549.321411 1267.042969,552.065735 1269.474365,555.346497 
	C1289.762939,582.723816 1309.936890,610.186157 1330.107910,637.650391 
	C1345.319214,658.361572 1360.408569,679.162720 1375.673706,699.834045 
	C1393.097656,723.428284 1410.672607,746.910828 1428.150391,770.465210 
	C1440.148926,786.635132 1452.129272,802.818604 1464.052002,819.044250 
	C1475.109009,834.091553 1486.061890,849.215271 1497.091675,864.282654 
	C1508.144409,879.381714 1519.203491,894.476318 1530.316772,909.530823 
	C1550.131714,936.372986 1569.996216,963.178711 1589.827026,990.009216 
	C1599.419556,1002.987427 1608.908081,1016.043152 1618.601440,1028.945190 
	C1621.770020,1033.162598 1623.536987,1037.447144 1621.593628,1043.117432 
	C1381.034302,1043.117432 1140.325439,1043.117432 899.769897,1043.117432 
	C896.900146,1038.405518 899.048828,1035.144531 901.490112,1031.841797 
	C912.655701,1016.736328 923.779724,1001.600098 934.910034,986.468506 
	C957.975220,955.111572 980.915894,923.662109 1004.138794,892.422424 
	C1019.456055,871.817505 1035.367310,851.653748 1050.658936,831.030151 
	C1064.595337,812.234375 1077.960327,793.016235 1091.748901,774.109375 
	C1108.351562,751.343567 1125.123779,728.701233 1141.843750,706.020996 
	C1160.277954,681.015198 1178.710083,656.007690 1197.192383,631.037476 
	C1212.052368,610.960938 1226.986084,590.938904 1242.302734,570.297852 
z"/>
<path fill="#FEFEFE" opacity="1.000000" stroke="none" 
	d="
M2257.133789,1960.869019 
	C2299.023926,2017.655029 2340.461914,2073.872559 2381.613525,2129.701904 
	C2380.878906,2134.306396 2378.521729,2136.144775 2374.689941,2136.231934 
	C2372.025879,2136.292480 2369.360596,2136.324951 2366.695801,2136.325195 
	C2134.076172,2136.329102 1901.456665,2136.332275 1668.837158,2136.302246 
	C1664.226929,2136.301514 1659.616699,2135.903809 1655.462036,2135.712402 
	C1651.556763,2127.557617 1658.431396,2123.753418 1661.361328,2119.393311 
	C1671.577393,2104.190674 1682.891846,2089.720947 1693.902466,2075.058105 
	C1705.850952,2059.145508 1718.028320,2043.403809 1729.912354,2027.443481 
	C1738.699341,2015.642944 1747.146484,2003.590088 1755.801147,1991.690430 
	C1761.974487,1983.202393 1768.253174,1974.791504 1774.463013,1966.330200 
	C1787.243286,1948.916016 1799.951782,1931.448975 1812.794800,1914.081177 
	C1828.335571,1893.065918 1844.043335,1872.173950 1859.567993,1851.146729 
	C1871.064941,1835.575073 1882.294800,1819.806030 1893.808350,1804.246948 
	C1906.274902,1787.400146 1918.935303,1770.696899 1931.505127,1753.926758 
	C1937.770630,1745.567505 1944.070190,1737.233398 1950.273071,1728.828003 
	C1966.027222,1707.480713 1981.766479,1686.122314 1997.441406,1664.716919 
	C2001.467163,1659.219482 2005.214722,1653.518799 2009.122070,1647.933838 
	C2014.885620,1639.695801 2018.843628,1639.272461 2024.983643,1647.031494 
	C2034.005493,1658.432251 2042.695801,1670.100342 2051.349609,1681.786377 
	C2063.315674,1697.945068 2075.056152,1714.270874 2086.999756,1730.446289 
	C2117.856201,1772.235474 2148.797363,1813.962158 2179.654297,1855.750854 
	C2205.367188,1890.573608 2231.008545,1925.448730 2257.133789,1960.869019 
z"/>
<path fill="#FFFFFF" opacity="1.000000" stroke="none" 
	d="
M683.768433,1934.235352 
	C697.063293,1952.096680 709.932495,1969.382446 722.699646,1986.743286 
	C742.107666,2013.134399 761.419189,2039.596558 780.820312,2065.992920 
	C796.478333,2087.296387 812.174316,2108.572021 827.940308,2129.795898 
	C830.537842,2133.292969 833.431458,2136.510010 831.732117,2141.771973 
	C590.088440,2141.771973 348.304138,2141.771973 104.606407,2141.771973 
	C106.934837,2137.245361 108.235718,2133.628662 110.413216,2130.653320 
	C130.416763,2103.321289 150.584137,2076.109131 170.680847,2048.844971 
	C206.334839,2000.475464 241.986343,1952.103882 277.612885,1903.713989 
	C305.186188,1866.262451 332.620667,1828.708252 360.298859,1791.334351 
	C388.311646,1753.508423 416.564301,1715.860229 444.673370,1678.105347 
	C450.397919,1670.416382 455.896393,1662.559326 461.613037,1654.864380 
	C463.542053,1652.267944 465.823425,1649.933350 468.874603,1646.401611 
	C472.690430,1650.265259 476.259216,1653.139038 478.919434,1656.692749 
	C495.761292,1679.191406 512.497192,1701.770996 529.083435,1724.458862 
	C547.038818,1749.019653 564.627319,1773.849365 582.678589,1798.338745 
	C603.124817,1826.077271 623.947327,1853.538330 644.529419,1881.177246 
	C657.524780,1898.628418 670.379395,1916.184448 683.768433,1934.235352 
z"/>
<path fill="#FEFEFE" opacity="1.000000" stroke="none" 
	d="
M989.832031,1979.787354 
	C1006.092102,1957.776123 1021.971741,1936.375122 1037.795898,1914.933105 
	C1046.787231,1902.749878 1055.634277,1890.460083 1064.641479,1878.288574 
	C1077.525513,1860.878662 1090.604614,1843.612305 1103.405273,1826.141724 
	C1122.633057,1799.899902 1141.538330,1773.421021 1160.863892,1747.251831 
	C1181.945801,1718.704590 1203.358032,1690.401489 1224.603882,1661.975098 
	C1226.966431,1658.813965 1228.969727,1655.362183 1231.521484,1652.370972 
	C1234.328979,1649.080078 1237.668701,1648.593750 1240.971924,1651.961060 
	C1242.831665,1653.856934 1244.953247,1655.557373 1246.519531,1657.670044 
	C1263.013306,1679.917969 1279.420288,1702.230469 1295.848267,1724.527344 
	C1311.053589,1745.165405 1326.250000,1765.809937 1341.460205,1786.444336 
	C1366.229248,1820.046265 1390.974243,1853.666016 1415.789429,1887.233887 
	C1437.397949,1916.463745 1459.153442,1945.585205 1480.725952,1974.841675 
	C1502.408081,2004.246948 1523.931763,2033.769409 1545.549072,2063.222656 
	C1561.456787,2084.896484 1577.460815,2106.500000 1593.278076,2128.239502 
	C1596.024170,2132.013672 1598.055420,2136.308105 1601.165527,2141.647949 
	C1357.871338,2141.647949 1116.411133,2141.647949 874.603394,2141.647949 
	C872.029114,2138.402344 874.632690,2135.907959 876.505798,2133.305420 
	C885.959595,2120.170898 895.342163,2106.984375 904.910339,2093.933838 
	C914.458313,2080.910400 924.205872,2068.033203 933.848999,2055.079590 
	C952.381836,2030.184570 970.902649,2005.280640 989.832031,1979.787354 
z"/>
</svg>